<?xml version="1.0" standalone="no"?>
<!DOCTYPE svg PUBLIC "-//W3C//DTD SVG 20010904//EN"
 "http://www.w3.org/TR/2001/REC-SVG-20010904/DTD/svg10.dtd">
<svg version="1.0" xmlns="http://www.w3.org/2000/svg"
 width="512.000000pt" height="512.000000pt" viewBox="0 0 512.000000 512.000000"
 preserveAspectRatio="xMidYMid meet">

<g transform="translate(0.000000,512.000000) scale(0.100000,-0.100000)"
fill="#000000" stroke="none">
<path d="M4301 4813 c-38 -32 -631 -976 -631 -1005 0 -15 11 -39 24 -54 29
-35 86 -39 116 -9 34 35 621 966 626 994 8 40 -37 91 -81 91 -18 0 -42 -8 -54
-17z"/>
<path d="M3577 4704 c-110 -35 -183 -159 -158 -270 42 -187 262 -253 396 -119
60 59 83 135 65 212 -30 137 -171 219 -303 177z m98 -164 c52 -20 52 -100 0
-120 -55 -21 -106 30 -85 85 8 21 24 33 57 44 1 1 13 -3 28 -9z"/>
<path d="M1880 4405 l0 -85 85 0 85 0 0 85 0 85 -85 0 -85 0 0 -85z"/>
<path d="M2220 4405 l0 -85 85 0 85 0 0 85 0 85 -85 0 -85 0 0 -85z"/>
<path d="M2560 4405 l0 -85 85 0 85 0 0 85 0 85 -85 0 -85 0 0 -85z"/>
<path d="M2900 4405 l0 -85 85 0 85 0 0 85 0 85 -85 0 -85 0 0 -85z"/>
<path d="M4312 4254 c-59 -29 -94 -70 -117 -133 -19 -54 -19 -84 0 -148 16
-54 65 -112 117 -139 54 -28 136 -30 196 -4 92 40 142 117 142 217 -1 74 -25
129 -80 176 -75 64 -170 75 -258 31z m150 -161 c27 -24 24 -79 -6 -99 -33 -21
-65 -15 -89 17 -45 61 38 133 95 82z"/>
<path d="M1880 4065 l0 -85 85 0 85 0 0 85 0 85 -85 0 -85 0 0 -85z"/>
<path d="M2130 3894 c-258 -46 -424 -111 -600 -235 -147 -103 -305 -283 -389
-444 -35 -68 -39 -104 -14 -133 24 -27 1107 -552 1140 -552 14 0 36 12 52 28
26 26 29 42 115 627 48 330 86 615 84 634 -2 23 -12 41 -31 55 -26 19 -43 21
-180 23 -84 1 -163 -1 -177 -3z m210 -169 c0 -2 -31 -217 -70 -478 -38 -260
-70 -479 -70 -485 0 -7 -4 -12 -10 -12 -5 0 -205 95 -444 211 l-434 211 29 47
c149 244 449 440 754 496 67 13 245 20 245 10z"/>
<path d="M1880 3465 l0 -85 85 0 85 0 0 85 0 85 -85 0 -85 0 0 -85z"/>
<path d="M4530 3624 c-172 -46 -317 -217 -370 -436 -27 -113 -27 -277 0 -384
38 -152 131 -299 234 -371 l29 -20 -27 -854 c-37 -1150 -36 -1063 -4 -1125 52
-98 139 -149 247 -142 77 5 125 25 174 75 55 54 71 96 75 193 1 47 -10 483
-27 970 -27 821 -28 886 -13 894 10 5 46 38 82 75 223 226 252 640 65 921
-115 174 -291 251 -465 204z m212 -191 c114 -62 193 -218 205 -403 12 -204
-73 -393 -215 -473 -30 -16 -58 -40 -64 -51 -6 -15 1 -333 21 -961 17 -517 31
-959 31 -983 0 -77 -76 -126 -142 -91 -47 25 -47 18 -17 914 38 1166 37 1109
14 1135 -10 11 -34 28 -53 37 -82 39 -164 158 -197 288 -19 75 -19 221 0 304
22 92 79 194 138 246 87 79 181 91 279 38z"/>
<path d="M4750 2967 c-18 -9 -32 -32 -49 -81 -17 -47 -39 -84 -72 -121 -37
-40 -49 -61 -49 -84 0 -44 38 -81 83 -81 66 0 160 110 198 231 17 54 17 64 4
95 -20 49 -67 65 -115 41z"/>
<path d="M118 3584 c-36 -19 -40 -34 -84 -399 -36 -301 -37 -312 -21 -365 35
-117 117 -202 228 -236 l57 -17 -5 -101 c-2 -56 -17 -505 -33 -998 -20 -637
-26 -908 -18 -935 24 -90 90 -162 177 -191 73 -25 176 -9 243 39 37 27 85 100
99 151 7 27 1 307 -21 960 -16 508 -30 958 -30 1000 l0 77 43 11 c130 35 230
151 244 283 6 57 -61 633 -79 680 -22 56 -95 70 -138 27 -27 -27 -26 -54 16
-384 19 -154 33 -296 30 -314 -7 -45 -51 -101 -92 -118 -18 -8 -54 -14 -78
-14 -25 0 -57 -5 -71 -12 -58 -26 -57 27 -20 -1107 38 -1137 39 -1082 -20
-1109 -42 -19 -72 -14 -107 17 l-33 29 3 124 c1 68 16 535 32 1038 17 503 30
925 30 937 0 12 -10 34 -23 49 -20 22 -34 27 -100 34 -92 9 -137 37 -162 102
-15 42 -14 55 23 358 42 342 42 359 -9 385 -35 18 -47 18 -81 -1z"/>
<path d="M480 3587 c-48 -24 -50 -38 -50 -415 0 -370 3 -400 45 -416 35 -13
76 -6 100 19 l25 24 0 375 0 374 -31 26 c-34 29 -52 32 -89 13z"/>
<path d="M2782 3557 c-19 -20 -32 -95 -117 -666 -52 -354 -95 -654 -95 -668 0
-28 769 -1147 796 -1157 55 -21 142 32 284 174 193 193 322 433 382 713 30
142 30 379 0 522 -83 390 -293 699 -618 907 -162 104 -432 198 -567 198 -32 0
-49 -6 -65 -23z m234 -183 c436 -126 762 -488 850 -942 21 -106 23 -307 5
-412 -32 -180 -119 -384 -224 -525 -62 -83 -205 -227 -220 -222 -6 2 -162 222
-348 490 -253 365 -335 492 -332 509 8 52 163 1109 163 1118 0 14 8 13 106
-16z"/>
<path d="M1252 2623 c-16 -6 -52 -78 -87 -173 -94 -261 -98 -568 -10 -834 163
-499 585 -839 1115 -896 170 -19 388 7 552 66 104 37 263 121 305 160 29 28
35 39 31 66 -3 23 -110 186 -357 543 -194 281 -361 518 -370 527 -14 15 -251
136 -381 196 -25 11 -197 95 -384 186 -325 159 -370 177 -414 159z m584 -432
l479 -233 315 -455 c173 -251 316 -459 318 -464 2 -4 -23 -21 -55 -37 -184
-93 -410 -134 -612 -112 -603 66 -1045 576 -1018 1175 7 147 60 373 86 363 5
-2 224 -108 487 -237z"/>
</g>
</svg>
