<?xml version="1.0" standalone="no"?>
<!DOCTYPE svg PUBLIC "-//W3C//DTD SVG 20010904//EN"
 "http://www.w3.org/TR/2001/REC-SVG-20010904/DTD/svg10.dtd">
<svg version="1.0" xmlns="http://www.w3.org/2000/svg"
 width="512.000000pt" height="512.000000pt" viewBox="0 0 512.000000 512.000000"
 preserveAspectRatio="xMidYMid meet">

<g transform="translate(0.000000,512.000000) scale(0.100000,-0.100000)"
fill="#000000" stroke="none">
<path d="M1875 5025 c-416 -68 -767 -311 -979 -680 -40 -71 -126 -277 -126
-304 0 -5 -21 -25 -47 -42 -536 -364 -769 -1033 -572 -1642 145 -449 514 -806
970 -938 l78 -22 3 -541 3 -541 27 -51 c40 -76 70 -107 140 -145 58 -31 70
-34 148 -34 78 0 90 3 148 34 70 38 100 69 140 145 l27 51 3 542 3 541 52 12
c67 16 205 69 287 110 176 89 372 254 496 420 84 111 182 308 218 435 15 55
31 108 35 117 5 14 23 -4 84 -78 43 -52 80 -101 83 -109 4 -8 -7 -32 -24 -52
-60 -77 -100 -182 -109 -289 -21 -258 139 -493 397 -580 76 -26 244 -26 320 0
140 47 260 143 324 260 56 102 71 159 71 276 0 127 -24 207 -92 308 -28 43
-42 71 -36 79 4 7 98 120 208 252 l200 240 103 0 102 1 0 72 0 72 50 -49 50
-50 167 168 168 167 -50 50 -49 50 72 0 72 0 0 240 0 240 -72 0 -72 0 49 50
50 50 -168 167 -167 168 -50 -50 -50 -49 0 72 0 72 -240 0 -240 0 0 -72 0 -72
-50 49 -50 50 -167 -168 -168 -167 50 -50 49 -50 -72 0 -72 0 0 -240 0 -240
72 0 72 0 -49 -50 -50 -50 168 -167 167 -168 50 50 50 49 0 -72 0 -72 30 0
c17 0 30 -2 30 -5 0 -14 -323 -390 -333 -388 -7 1 -40 13 -74 28 -152 63 -325
56 -471 -19 l-31 -16 -116 141 -115 141 77 82 c171 181 286 405 340 666 24
117 24 380 0 502 -21 103 -76 266 -119 352 -190 378 -549 651 -960 731 -117
23 -351 28 -463 10z m465 -174 c352 -80 651 -315 814 -639 84 -168 121 -329
121 -532 0 -157 -12 -236 -56 -372 -97 -299 -320 -557 -607 -702 -168 -84
-329 -121 -532 -121 -157 0 -236 12 -372 56 -178 58 -334 154 -474 293 -173
173 -287 386 -335 631 -21 103 -18 349 5 455 78 363 314 668 644 834 93 47
225 90 322 106 41 6 82 13 90 15 42 11 302 -6 380 -24z m2062 -853 l3 -81 70
-29 69 -28 58 57 58 58 57 -58 58 -57 -58 -58 -59 -59 30 -69 29 -69 81 -3 82
-3 0 -79 0 -79 -82 -3 -81 -3 -29 -69 -30 -69 59 -59 58 -58 -58 -57 -57 -58
-58 58 -59 59 -69 -30 -69 -29 -3 -81 -3 -82 -79 0 -79 0 -3 82 -3 81 -69 29
-69 30 -59 -59 -58 -58 -57 58 -58 57 58 58 57 58 -28 69 -29 70 -81 3 -82 3
0 79 0 79 82 3 81 3 29 69 30 69 -59 59 -58 58 58 57 57 58 58 -58 59 -59 69
30 69 29 3 81 3 82 79 0 79 0 3 -82z m-3680 -305 l-3 -107 -69 -85 c-122 -152
-204 -335 -235 -522 -57 -355 59 -712 315 -969 210 -210 497 -330 790 -330
314 0 640 148 842 383 74 86 118 153 170 263 l41 84 91 44 c50 24 93 42 95 40
9 -9 -54 -182 -99 -273 -176 -351 -492 -591 -891 -677 -118 -26 -380 -26 -499
0 -257 55 -466 169 -651 355 -236 235 -359 511 -375 841 -19 365 120 714 386
974 48 47 89 86 91 86 2 0 3 -48 1 -107z m147 -626 c275 -540 874 -835 1464
-722 l39 8 -39 -63 c-90 -147 -270 -301 -432 -370 -136 -58 -210 -73 -376 -74
-165 0 -229 11 -364 65 -224 89 -428 288 -522 510 -88 207 -102 446 -37 658
23 77 88 211 125 260 l26 34 33 -104 c18 -57 56 -148 83 -202z m2815 -785 c91
-42 149 -100 194 -190 35 -72 37 -81 37 -172 0 -91 -2 -100 -37 -172 -45 -91
-103 -147 -196 -191 -61 -29 -76 -32 -162 -32 -86 0 -101 3 -162 32 -93 44
-151 100 -196 191 -35 72 -37 81 -37 171 0 87 3 102 32 163 40 85 97 147 172
186 78 42 122 52 213 48 61 -3 92 -11 142 -34z m-2006 -1429 c-3 -499 -4 -512
-24 -539 -39 -53 -71 -69 -134 -69 -63 0 -95 16 -134 69 -20 27 -21 40 -24
539 l-3 512 161 0 161 0 -3 -512z"/>
<path d="M1840 3840 l0 -720 -80 0 -80 0 0 400 0 400 -240 0 -240 0 0 -480 0
-480 880 0 880 0 0 640 0 640 -240 0 -240 0 0 -560 0 -560 -80 0 -80 0 0 720
0 720 -240 0 -240 0 0 -720z m320 -80 l0 -640 -80 0 -80 0 0 640 0 640 80 0
80 0 0 -640z m640 -160 l0 -480 -80 0 -80 0 0 480 0 480 80 0 80 0 0 -480z
m-1280 -160 l0 -320 -80 0 -80 0 0 320 0 320 80 0 80 0 0 -320z"/>
<path d="M4240 3747 c-49 -16 -133 -102 -148 -153 -28 -94 -8 -169 63 -239 51
-52 102 -75 165 -75 63 0 114 23 165 75 98 97 101 222 8 325 -65 72 -158 97
-253 67z m135 -172 c16 -15 25 -36 25 -55 0 -19 -9 -40 -25 -55 -15 -16 -36
-25 -55 -25 -19 0 -40 9 -55 25 -16 15 -25 36 -25 55 0 19 9 40 25 55 15 16
36 25 55 25 19 0 40 -9 55 -25z"/>
<path d="M3568 2003 l-128 -128 -48 48 c-26 26 -52 47 -58 47 -13 0 -104 -93
-104 -106 0 -5 47 -56 105 -114 l105 -105 185 185 c102 102 185 190 185 195 0
13 -92 105 -105 105 -6 0 -67 -57 -137 -127z"/>
<path d="M3600 4640 l0 -80 80 0 80 0 0 80 0 80 -80 0 -80 0 0 -80z"/>
<path d="M3920 4640 l0 -80 80 0 80 0 0 80 0 80 -80 0 -80 0 0 -80z"/>
<path d="M4240 4640 l0 -80 80 0 80 0 0 80 0 80 -80 0 -80 0 0 -80z"/>
</g>
</svg>
