<?xml version="1.0" standalone="no"?>
<!DOCTYPE svg PUBLIC "-//W3C//DTD SVG 20010904//EN"
 "http://www.w3.org/TR/2001/REC-SVG-20010904/DTD/svg10.dtd">
<svg version="1.0" xmlns="http://www.w3.org/2000/svg"
 width="512.000000pt" height="512.000000pt" viewBox="0 0 512.000000 512.000000"
 preserveAspectRatio="xMidYMid meet">

<g transform="translate(0.000000,512.000000) scale(0.100000,-0.100000)"
fill="#000000" stroke="none">
<path d="M4365 5028 c-27 -5 -86 -27 -131 -48 -163 -78 -280 -239 -306 -419
l-12 -81 -1918 0 -1918 0 0 -1600 0 -1600 1203 -2 1202 -3 7 -65 c18 -167 82
-357 167 -499 248 -412 690 -651 1161 -627 330 16 606 139 841 375 236 235
359 511 375 841 19 369 -124 724 -395 983 l-81 77 0 784 0 783 55 12 c129 29
276 136 342 248 133 227 100 503 -82 686 -132 134 -320 191 -510 155z m279
-186 c91 -42 149 -100 194 -190 35 -72 37 -81 37 -172 0 -91 -2 -100 -37 -172
-45 -91 -103 -147 -196 -191 -61 -29 -76 -32 -162 -32 -86 0 -101 3 -160 31
-95 46 -153 101 -197 192 -36 72 -38 81 -38 171 0 87 3 102 32 163 40 85 97
147 172 186 78 42 122 52 213 48 61 -3 92 -11 142 -34z m-689 -551 c3 -16 22
-55 41 -87 l35 -58 -243 -243 c-196 -197 -247 -243 -263 -238 -46 14 -115 17
-150 5 l-37 -12 -81 80 c-79 79 -80 80 -68 112 49 142 -75 310 -229 310 -63 0
-114 -23 -165 -75 -70 -69 -92 -153 -64 -235 l12 -32 -199 -199 c-160 -160
-203 -199 -219 -194 -100 30 -180 11 -250 -59 -101 -102 -101 -230 0 -331 101
-101 229 -101 331 0 70 70 89 150 59 250 -5 16 34 59 194 219 l199 199 32 -12
c42 -14 98 -14 140 0 32 12 33 11 112 -69 80 -79 81 -80 69 -112 -49 -142 75
-310 229 -310 63 0 114 23 166 75 70 70 89 150 59 250 -5 16 42 67 238 263
l243 243 58 -35 c32 -19 89 -43 127 -53 l69 -17 0 -729 c0 -401 -3 -727 -7
-725 -172 88 -294 129 -453 153 -379 58 -770 -67 -1055 -337 l-85 -80 0 176 0
176 -240 0 -240 0 0 -480 0 -480 90 0 91 0 -7 -67 c-3 -38 -7 -74 -10 -80 -3
-10 -236 -13 -1124 -13 l-1120 0 0 1440 0 1440 1854 0 1854 0 7 -29z m-940
-316 c16 -15 25 -36 25 -55 0 -19 -9 -40 -25 -55 -15 -16 -36 -25 -55 -25 -19
0 -40 9 -55 25 -16 15 -25 36 -25 55 0 19 9 40 25 55 15 16 36 25 55 25 19 0
40 -9 55 -25z m480 -480 c16 -15 25 -36 25 -55 0 -19 -9 -40 -25 -55 -15 -16
-36 -25 -55 -25 -19 0 -40 9 -55 25 -16 15 -25 36 -25 55 0 19 9 40 25 55 15
16 36 25 55 25 19 0 40 -9 55 -25z m-1200 -240 c50 -49 15 -135 -55 -135 -41
0 -80 39 -80 80 0 41 39 80 80 80 19 0 40 -9 55 -25z m1381 -1091 c-2 -6 -27
-14 -56 -18 -80 -11 -213 -63 -294 -116 -308 -201 -443 -592 -320 -930 13 -36
20 -68 16 -72 -4 -3 -65 -40 -137 -81 l-130 -75 -23 50 c-127 280 -120 632 18
917 163 336 480 573 838 625 l87 12 3 -150 c1 -83 1 -155 -2 -162z m389 270
c529 -147 880 -678 804 -1220 -12 -90 -48 -220 -81 -292 l-23 -50 -132 76
c-72 43 -134 80 -137 83 -3 3 4 30 15 60 99 258 43 567 -141 784 -121 142
-281 235 -460 269 l-65 12 -3 160 -2 161 67 -9 c38 -5 109 -20 158 -34z
m-1425 -243 l0 -208 -39 -84 c-22 -46 -43 -96 -46 -111 -6 -24 -12 -28 -41
-28 l-34 0 0 320 0 320 80 0 80 0 0 -209z m1255 -206 c216 -45 409 -223 478
-440 18 -57 22 -93 22 -190 -1 -104 -5 -130 -27 -193 -37 -104 -83 -176 -158
-252 -76 -76 -167 -132 -265 -163 -57 -18 -93 -22 -190 -22 -104 1 -130 5
-193 27 -105 38 -176 83 -257 163 -193 192 -239 484 -115 731 132 261 418 399
705 339z m-714 -1170 c192 -202 459 -291 721 -241 173 33 316 113 441 245 l68
72 134 -77 c74 -42 135 -79 135 -83 0 -31 -143 -185 -239 -256 -141 -107 -301
-180 -476 -217 -77 -16 -333 -16 -410 0 -231 49 -434 159 -593 320 -76 76
-129 148 -119 159 6 5 259 152 265 153 1 0 34 -34 73 -75z"/>
<path d="M400 4080 l0 -80 80 0 80 0 0 80 0 80 -80 0 -80 0 0 -80z"/>
<path d="M720 4080 l0 -80 560 0 560 0 0 80 0 80 -560 0 -560 0 0 -80z"/>
<path d="M400 3760 l0 -80 80 0 80 0 0 80 0 80 -80 0 -80 0 0 -80z"/>
<path d="M720 3760 l0 -80 560 0 560 0 0 80 0 80 -560 0 -560 0 0 -80z"/>
<path d="M400 3440 l0 -80 80 0 80 0 0 80 0 80 -80 0 -80 0 0 -80z"/>
<path d="M720 3440 l0 -80 560 0 560 0 0 80 0 80 -560 0 -560 0 0 -80z"/>
<path d="M400 3120 l0 -80 80 0 80 0 0 80 0 80 -80 0 -80 0 0 -80z"/>
<path d="M720 3120 l0 -80 560 0 560 0 0 80 0 80 -560 0 -560 0 0 -80z"/>
<path d="M1680 2240 l0 -640 240 0 240 0 0 640 0 640 -240 0 -240 0 0 -640z
m320 0 l0 -480 -80 0 -80 0 0 480 0 480 80 0 80 0 0 -480z"/>
<path d="M400 2000 l0 -400 240 0 240 0 0 400 0 400 -240 0 -240 0 0 -400z
m320 0 l0 -240 -80 0 -80 0 0 240 0 240 80 0 80 0 0 -240z"/>
<path d="M1040 1920 l0 -320 240 0 240 0 0 320 0 320 -240 0 -240 0 0 -320z
m320 0 l0 -160 -80 0 -80 0 0 160 0 160 80 0 80 0 0 -160z"/>
<path d="M3641 1824 c-253 -68 -410 -331 -346 -579 67 -256 329 -415 580 -350
256 67 415 329 350 578 -67 259 -333 419 -584 351z m270 -185 c67 -36 98 -68
137 -143 22 -43 26 -64 26 -136 1 -78 -2 -90 -33 -148 -38 -70 -70 -100 -145
-140 -43 -22 -64 -26 -136 -26 -72 0 -93 4 -136 26 -75 40 -107 70 -145 140
-31 58 -34 70 -33 148 0 100 24 160 89 225 100 100 249 121 376 54z"/>
</g>
</svg>
