<?xml version="1.0" standalone="no"?>
<!DOCTYPE svg PUBLIC "-//W3C//DTD SVG 20010904//EN"
 "http://www.w3.org/TR/2001/REC-SVG-20010904/DTD/svg10.dtd">
<svg version="1.0" xmlns="http://www.w3.org/2000/svg"
 width="512.000000pt" height="512.000000pt" viewBox="0 0 512.000000 512.000000"
 preserveAspectRatio="xMidYMid meet">

<g transform="translate(0.000000,512.000000) scale(0.100000,-0.100000)"
fill="#000000" stroke="none">
<path d="M2425 5029 c-624 -31 -1229 -341 -1629 -837 -44 -54 -56 -77 -56
-104 0 -72 81 -97 129 -41 14 16 63 73 109 126 136 159 355 335 555 446 31 18
57 30 57 27 0 -4 -34 -70 -75 -149 -41 -78 -77 -160 -80 -182 -5 -30 3 -72 34
-174 47 -157 54 -167 185 -235 93 -48 138 -56 193 -35 60 22 80 55 135 221 42
127 56 158 71 158 41 0 353 -42 359 -48 13 -14 176 -467 169 -473 -3 -4 -61
-30 -127 -59 -120 -50 -144 -70 -144 -114 0 -28 41 -66 72 -66 45 0 268 99
304 135 35 34 57 95 47 134 -3 14 -46 136 -95 271 -93 254 -112 290 -173 315
-42 18 -415 59 -458 51 -77 -14 -104 -54 -167 -253 -23 -73 -46 -133 -51 -133
-5 0 -40 15 -77 34 l-68 34 -32 107 -31 108 115 227 114 228 58 21 c49 18 186
56 275 75 26 6 27 5 27 -35 0 -54 38 -119 82 -142 18 -10 97 -35 176 -56 155
-43 136 -31 296 -178 l69 -63 13 -131 c8 -73 21 -146 30 -165 22 -46 66 -78
133 -98 72 -21 96 -20 148 5 55 27 80 70 127 221 l36 117 53 19 c28 11 89 31
134 46 45 15 94 37 109 48 29 24 63 90 64 126 0 12 4 22 8 22 4 0 38 -19 74
-43 232 -153 443 -363 600 -598 62 -92 153 -257 146 -263 -1 -2 -101 8 -221
21 -120 14 -234 22 -252 19 -53 -10 -81 -40 -176 -186 l-89 -137 -187 -53
c-206 -59 -241 -80 -262 -157 -7 -23 -11 -162 -11 -344 l0 -306 -34 -65 c-65
-125 -70 -278 -12 -403 l23 -51 -47 -32 c-26 -18 -57 -43 -70 -57 l-23 -24
-46 40 c-25 22 -58 48 -72 56 l-27 16 25 53 c117 257 -34 566 -312 639 -161
41 -326 -5 -447 -127 -54 -55 -118 -164 -118 -203 0 -16 -7 -17 -67 -12 -38 4
-79 7 -93 7 -21 0 -29 9 -47 57 -30 76 -100 164 -167 208 -87 58 -149 78 -257
81 -95 4 -97 4 -231 69 l-135 65 -7 65 c-4 36 -4 69 -2 74 3 4 44 21 91 37 76
26 88 27 108 15 141 -89 170 -104 209 -108 67 -7 111 25 271 197 l144 154 104
46 c81 35 107 52 117 74 18 37 1 80 -39 96 -26 11 -40 8 -142 -34 l-112 -46
-165 -170 -165 -170 -99 60 c-120 73 -140 74 -283 26 -122 -41 -143 -54 -172
-107 -21 -38 -23 -49 -17 -123 13 -161 30 -188 158 -252 50 -25 87 -49 82 -52
-5 -4 -23 -20 -41 -36 l-32 -28 -48 40 c-82 68 -195 112 -290 112 l-43 0 0 63
c-1 104 -16 185 -43 221 -15 19 -62 51 -121 81 -76 40 -96 55 -96 71 0 38 56
246 95 349 21 55 57 139 81 187 49 98 55 145 24 173 -24 22 -72 24 -95 5 -40
-33 -153 -298 -205 -477 -83 -292 -109 -625 -70 -918 7 -51 8 -106 2 -153 -10
-89 0 -175 31 -252 l24 -58 -60 -43 c-120 -87 -214 -222 -269 -383 -31 -89
-32 -96 -36 -308 -5 -241 2 -282 58 -350 42 -51 121 -88 186 -88 l52 0 4 -297
c3 -283 4 -300 25 -338 49 -92 104 -119 248 -119 95 0 116 3 153 22 l43 23 47
-23 c40 -19 62 -23 152 -22 58 0 116 5 131 11 18 8 30 8 45 0 11 -7 64 -12
129 -11 95 0 116 3 154 23 l44 23 41 -23 c36 -20 55 -23 151 -23 126 0 170 15
223 80 42 51 52 101 52 270 l0 146 23 -6 c12 -3 46 -11 75 -17 l52 -12 0 -129
c0 -151 11 -202 52 -252 53 -65 97 -80 223 -80 98 0 115 2 153 24 l42 24 43
-24 c37 -22 54 -24 152 -24 126 0 170 15 223 80 41 50 52 101 52 252 l0 129
53 12 c28 6 62 14 75 17 l22 6 0 -146 c0 -169 10 -219 52 -270 51 -62 91 -76
219 -76 94 0 120 4 156 21 l43 21 45 -22 c41 -20 56 -21 167 -16 68 3 132 5
143 4 11 0 79 -1 152 -2 119 -1 134 1 159 20 l28 20 43 -24 c40 -22 51 -23
167 -20 120 3 126 4 167 33 26 18 53 50 68 80 26 49 26 51 29 342 l3 293 53 0
c102 0 197 72 233 175 12 38 14 84 11 263 -4 213 -5 219 -36 310 -60 174 -160
311 -290 397 l-39 26 24 60 c30 75 41 163 30 254 -5 43 -4 101 3 150 50 374
-4 790 -146 1139 -311 762 -1001 1297 -1804 1400 -153 19 -265 23 -435 15z
m385 -160 c191 -21 384 -73 584 -156 l108 -46 -6 -55 c-4 -31 -8 -57 -10 -59
-1 -2 -65 -25 -141 -52 -179 -64 -184 -69 -240 -241 -25 -73 -48 -137 -52
-141 -5 -5 -25 -3 -46 3 -41 13 -39 5 -57 178 -7 58 -18 119 -26 136 -13 27
-71 84 -233 229 -38 35 -62 45 -205 85 l-161 46 -3 37 c-2 20 -2 38 0 38 2 1
53 4 113 8 129 7 243 4 375 -10z m1460 -1324 c129 -14 244 -28 256 -30 42 -9
123 -334 145 -584 11 -125 9 -315 -4 -327 -3 -3 -26 10 -51 29 -161 124 -422
110 -576 -29 l-40 -36 -40 34 c-129 111 -299 146 -456 93 -41 -14 -77 -25 -79
-25 -3 0 -5 105 -5 234 0 175 3 236 13 243 6 5 82 29 167 53 221 61 218 59
330 228 52 78 97 142 100 142 3 0 111 -11 240 -25z m-3686 -679 c3 -28 6 -79
8 -114 l2 -63 -45 -26 c-24 -14 -54 -35 -66 -46 -13 -11 -26 -18 -29 -14 -11
11 -17 181 -9 280 l7 96 63 -31 63 -31 6 -51z m318 -324 c26 -11 67 -41 92
-65 l44 -45 -14 -41 c-25 -73 -27 -168 -6 -249 l19 -73 -54 -49 c-198 -181
-522 -44 -524 223 -1 90 23 156 78 217 71 79 149 112 253 106 37 -2 85 -12
112 -24z m703 -3 c65 -31 121 -88 153 -158 35 -74 37 -183 5 -253 -52 -115
-167 -190 -293 -190 -178 0 -313 135 -313 312 -1 144 77 255 213 304 63 23
170 16 235 -15z m1087 1 c66 -31 125 -91 156 -158 34 -74 36 -183 4 -254 -93
-207 -371 -255 -523 -91 -61 66 -83 123 -83 213 1 144 78 255 214 304 62 22
170 16 232 -14z m1054 15 c112 -34 204 -146 219 -269 15 -118 -48 -239 -158
-307 -28 -17 -55 -37 -59 -43 -15 -22 -8 -76 12 -96 30 -30 70 -25 138 20 l62
39 62 -47 c113 -85 201 -220 233 -355 18 -77 21 -416 4 -450 -19 -38 -52 -57
-96 -57 l-43 0 0 194 c0 180 -1 195 -21 220 -26 33 -79 36 -109 6 -20 -20 -20
-33 -20 -573 0 -484 -2 -555 -16 -575 -14 -20 -23 -22 -102 -22 -48 0 -92 4
-99 8 -29 19 -33 70 -33 452 l0 389 -26 20 c-35 27 -57 26 -91 -3 l-28 -24 -5
-411 c-4 -351 -7 -413 -20 -421 -8 -5 -54 -10 -101 -10 -68 0 -89 3 -100 17
-11 13 -15 130 -19 632 l-5 616 -28 80 c-16 44 -43 108 -62 141 l-33 62 26 25
c15 13 47 38 70 55 l44 31 51 -34 c86 -58 157 -41 157 37 0 31 -23 59 -68 82
-40 21 -101 90 -125 145 -15 33 -21 67 -21 122 -1 68 3 84 34 145 72 141 223
205 376 159z m740 -18 c28 -14 72 -49 97 -77 125 -139 99 -361 -56 -467 -59
-40 -104 -53 -182 -53 -81 0 -149 26 -209 81 l-50 46 18 83 c20 89 17 169 -9
243 -13 37 -12 40 17 72 89 102 253 134 374 72z m-2395 -333 c4 -2 10 -23 13
-46 4 -24 17 -66 30 -94 l24 -51 -27 -16 c-14 -8 -47 -34 -73 -56 -42 -37 -47
-39 -59 -24 -8 9 -39 35 -70 58 l-56 41 17 35 c17 33 32 81 45 142 l6 29 72
-7 c40 -4 75 -9 78 -11z m-1462 -395 c36 -11 95 -20 132 -20 l67 -1 -38 -71
c-21 -40 -49 -103 -61 -142 -23 -69 -24 -76 -29 -687 -5 -576 -6 -619 -23
-635 -26 -26 -178 -26 -204 0 -17 16 -18 58 -23 583 -5 545 -6 566 -24 580
-28 20 -69 17 -97 -5 -24 -19 -24 -23 -27 -220 l-4 -201 -41 0 c-44 0 -77 20
-96 57 -17 33 -14 352 4 437 30 141 118 279 232 365 l66 49 51 -34 c28 -19 80
-44 115 -55z m653 16 c141 -65 355 -41 468 52 28 24 37 20 122 -49 l47 -39
-39 -72 c-21 -40 -49 -103 -61 -142 -23 -69 -24 -76 -29 -687 -5 -560 -7 -619
-22 -634 -28 -29 -155 -31 -198 -4 -13 8 -16 70 -20 421 l-5 411 -28 24 c-34
29 -56 30 -91 3 l-26 -20 0 -388 c0 -252 -4 -399 -11 -419 -14 -40 -60 -56
-142 -50 -104 8 -97 -38 -97 604 0 541 0 554 -20 574 -30 30 -83 27 -109 -6
-20 -25 -21 -40 -21 -220 l0 -194 -46 0 c-37 0 -51 5 -75 29 l-29 29 0 194 c0
220 11 282 66 393 41 85 108 163 187 221 l59 44 32 -25 c17 -13 57 -36 88 -50z
m1073 7 c62 -31 121 -44 205 -44 107 0 198 29 277 88 l32 24 63 -47 c76 -58
144 -141 187 -228 51 -105 61 -167 61 -383 l0 -194 -29 -29 c-24 -24 -38 -29
-75 -29 l-46 0 0 194 c0 180 -1 195 -21 220 -26 33 -79 36 -109 6 -20 -20 -20
-33 -20 -574 0 -635 6 -595 -88 -604 -54 -5 -107 2 -132 18 -13 8 -16 70 -20
421 l-5 411 -28 24 c-35 30 -59 30 -94 0 l-28 -24 -5 -411 c-4 -351 -7 -413
-20 -421 -25 -16 -78 -23 -132 -18 -94 9 -88 -31 -88 604 0 541 0 554 -20 574
-30 30 -83 27 -109 -6 -20 -25 -21 -40 -21 -220 l0 -194 -46 0 c-37 0 -51 5
-75 29 l-29 29 0 194 c0 216 10 278 61 383 43 87 111 170 187 228 l63 47 32
-24 c18 -13 50 -33 72 -44z m2468 -78 c62 -76 113 -181 132 -269 10 -46 15
-131 15 -248 l0 -179 -34 -34 c-27 -27 -42 -34 -74 -34 l-40 0 -4 201 c-3 197
-3 201 -27 220 -28 23 -69 24 -99 3 l-22 -15 0 -544 c0 -537 -3 -588 -33 -607
-7 -4 -51 -8 -98 -8 -68 0 -89 3 -100 17 -11 13 -15 130 -19 632 -5 610 -6
617 -29 686 -12 39 -40 103 -61 143 l-39 72 70 0 c83 0 172 27 243 75 l50 34
61 -43 c33 -24 82 -70 108 -102z m-3872 -914 l49 0 0 -274 c0 -150 3 -288 7
-306 l6 -33 -61 5 c-107 7 -102 -7 -102 334 l0 294 26 -10 c14 -6 48 -10 75
-10z m1090 0 l49 0 0 -71 c0 -62 -2 -70 -17 -65 -10 2 -44 12 -75 20 l-58 17
0 59 0 60 26 -10 c14 -6 48 -10 75 -10z m1139 -40 l0 -59 -57 -17 c-32 -8 -66
-18 -75 -20 -16 -5 -18 3 -18 65 l0 71 53 1 c28 0 61 4 72 9 11 5 21 9 23 9 1
1 2 -26 2 -59z m1074 -542 c-13 -14 -32 -18 -82 -18 -62 0 -64 1 -58 23 3 12
6 147 6 300 l0 277 53 1 c28 0 61 4 72 8 20 8 20 3 23 -282 2 -259 1 -292 -14
-309z"/>
</g>
</svg>
