<?xml version="1.0" standalone="no"?>
<!DOCTYPE svg PUBLIC "-//W3C//DTD SVG 20010904//EN"
 "http://www.w3.org/TR/2001/REC-SVG-20010904/DTD/svg10.dtd">
<svg version="1.0" xmlns="http://www.w3.org/2000/svg"
 width="512.000000pt" height="512.000000pt" viewBox="0 0 512.000000 512.000000"
 preserveAspectRatio="xMidYMid meet">

<g transform="translate(0.000000,512.000000) scale(0.100000,-0.100000)"
fill="#000000" stroke="none">
<path d="M2410 5114 c-81 -11 -235 -45 -307 -69 -102 -35 -255 -112 -351 -177
-103 -70 -305 -273 -371 -373 -103 -157 -179 -337 -218 -518 -25 -116 -25
-448 0 -564 45 -210 106 -343 286 -627 72 -115 130 -213 129 -218 -2 -5 -185
-111 -408 -237 l-405 -228 -382 -1004 c-210 -552 -382 -1014 -382 -1027 -1
-29 41 -72 70 -72 12 0 52 16 88 37 149 82 1098 617 1127 634 l31 19 611 -345
c337 -190 621 -345 632 -345 11 0 293 154 627 342 333 188 611 341 617 341 6
0 281 -152 611 -339 330 -186 612 -340 627 -342 33 -5 78 36 77 70 0 13 -172
475 -382 1027 l-382 1004 -405 229 c-223 125 -406 232 -408 236 -1 5 57 103
129 218 180 284 241 417 286 627 25 116 25 448 0 564 -38 178 -117 364 -218
518 -73 109 -270 305 -384 381 -159 106 -329 177 -510 215 -88 19 -356 33
-435 23z m420 -173 c443 -101 796 -419 939 -847 43 -127 61 -246 61 -399 0
-209 -38 -381 -124 -555 -46 -94 -1054 -1699 -1094 -1743 -28 -29 -66 -35 -93
-14 -22 17 -1054 1654 -1101 1747 -85 167 -128 357 -128 565 0 266 69 494 217
718 68 103 239 271 351 344 154 101 356 178 535 203 97 14 339 3 437 -19z
m-1310 -2851 c-33 -155 -60 -289 -60 -297 0 -23 47 -63 74 -63 14 0 36 10 50
23 21 19 32 57 82 300 32 152 61 277 64 277 3 0 154 -235 335 -522 292 -463
333 -524 372 -547 l42 -26 1 -513 0 -513 -32 17 c-31 16 -1041 584 -1044 588
-1 0 32 159 73 351 67 315 74 353 61 375 -20 36 -54 50 -89 38 -16 -6 -33 -18
-38 -27 -5 -9 -41 -169 -81 -356 -39 -187 -73 -347 -76 -356 -4 -15 -1021
-596 -1028 -588 -2 2 146 396 328 875 l331 872 345 195 c190 107 346 191 348
187 1 -3 -25 -134 -58 -290z m2390 91 l325 -183 331 -871 c182 -480 330 -874
328 -875 -1 -2 -232 126 -513 284 -377 212 -513 293 -516 308 -17 69 -325
1529 -325 1538 0 6 9 5 23 -4 12 -8 168 -96 347 -197z m-356 -598 c87 -412
160 -753 163 -758 2 -8 -1017 -593 -1069 -613 -4 -2 -8 227 -8 510 l1 513 42
26 c39 23 80 84 372 547 181 287 331 522 335 522 3 0 77 -336 164 -747z"/>
<path d="M2428 4510 c-139 -25 -274 -86 -384 -174 -149 -119 -260 -301 -293
-480 -14 -77 -14 -245 0 -322 23 -125 94 -269 187 -381 90 -107 269 -217 422
-259 100 -28 310 -25 413 4 368 105 607 419 607 797 0 376 -240 692 -602 795
-82 24 -272 35 -350 20z m327 -170 c171 -53 328 -185 403 -340 56 -113 72
-183 72 -305 0 -122 -16 -192 -72 -305 -32 -67 -58 -102 -122 -166 -142 -141
-280 -199 -476 -199 -196 0 -334 58 -476 199 -133 133 -194 281 -194 471 0
121 17 192 71 303 68 140 209 270 347 322 145 55 310 63 447 20z"/>
<path d="M2438 4204 c-174 -42 -326 -183 -378 -352 -27 -87 -27 -227 0 -314
53 -171 204 -311 382 -353 262 -62 539 96 618 353 27 87 27 227 0 314 -79 258
-359 416 -622 352z m233 -154 c160 -50 259 -186 259 -355 0 -169 -99 -305
-259 -355 -80 -25 -142 -25 -222 0 -115 36 -197 114 -240 229 -30 80 -24 214
14 287 50 99 124 162 226 195 74 24 145 23 222 -1z"/>
</g>
</svg>
